Coordinates
version=1
nRows=20
nColumns=17
inDegrees=yes

Units are S.I. units (second, meters, Newtons, ...)
If the header above contains a line with 'inDegrees', this indicates whether rotational values are in degrees (yes) or radians (no).

endheader
time	pelvis_tilt	pelvis_tx	pelvis_ty	hip_flexion_l	hip_flexion_r	knee_angle_l	knee_angle_r	ankle_angle_l	ankle_angle_r	lumbar_extension	FC_flexion	FC_adduction	FC_rotation	FC_tx	FC_ty	FC_tz
      3.39000000	    100.90717775	     -0.33095808	      1.03289886	    -11.31974203	     79.08287590	     -0.93827191	    -71.69924841	    -34.41568187	    -33.46656637	    -27.38142813	     -7.96922004	     16.96717935	     99.15573091	     -0.13572832	     -0.10362316	     -0.23570089
      3.40000000	    100.91824232	     -0.33097027	      1.03287988	    -11.32928100	     79.11217243	     -0.94168075	    -71.69741274	    -34.41744894	    -33.46526894	    -27.37883794	     -7.95953377	     17.00105523	     99.24270866	     -0.13568544	     -0.10368233	     -0.23562779
      3.41000000	    100.99351013	     -0.33108283	      1.03275330	    -11.40129444	     79.08679630	     -0.94360636	    -71.69396759	    -34.41766956	    -33.50898081	    -27.49437105	     -8.01294673	     17.02782757	     99.32752192	     -0.13559823	     -0.10379458	     -0.23561093
      3.42000000	    100.90131355	     -0.33099995	      1.03287471	    -11.33667670	     79.19446980	     -0.88978456	    -71.64545097	    -34.39212258	    -33.53666494	    -27.38276489	     -7.98952850	     17.09292883	     99.39933542	     -0.13558907	     -0.10369050	     -0.23551654
      3.43000000	    100.91332177	     -0.33101124	      1.03283858	    -11.33528056	     79.22816178	     -0.89330953	    -71.64170577	    -34.39364771	    -33.54070549	    -27.39757365	     -7.98069003	     17.11002590	     99.43399179	     -0.13654054	     -0.11154428	     -0.23756468
      3.44000000	    100.91407971	     -0.33103774	      1.03280341	    -11.33110029	     79.25810962	     -0.89555258	    -71.59853080	    -34.39271313	    -33.52495745	    -27.41558843	     -8.00064467	     17.24373491	     99.43833923	     -0.13650989	     -0.11154563	     -0.23756631
      3.45000000	    100.93032314	     -0.33105185	      1.03281445	    -11.34541536	     79.29052897	     -0.90360221	    -71.60144249	    -34.39219921	    -33.52121397	    -27.41176505	     -8.00624509	     17.34016907	     99.47101033	     -0.13639553	     -0.11172049	     -0.23758478
      3.46000000	    100.93492331	     -0.33105660	      1.03284031	    -11.35076772	     79.33630160	     -0.90483832	    -71.60227349	    -34.38971644	    -33.52826102	    -27.42866020	     -8.00617660	     17.43721247	     99.52300505	     -0.13655987	     -0.11187473	     -0.23757889
      3.47000000	    100.94328526	     -0.33108256	      1.03281867	    -11.36439758	     79.36063067	     -0.90781608	    -71.56558553	    -34.38171478	    -33.53163828	    -27.42672589	     -8.00442142	     17.49341787	     99.55883136	     -0.13646317	     -0.11198824	     -0.23763495
      3.48000000	    100.89381479	     -0.33106731	      1.03281410	    -11.33219037	     79.43147270	     -0.86543594	    -71.49750715	    -34.27371376	    -33.58647215	    -27.39397142	     -7.99706926	     17.52907187	     99.60236745	     -0.13640425	     -0.11201442	     -0.23768638
      3.49000000	    100.90774510	     -0.33107373	      1.03279792	    -11.34323558	     79.45124046	     -0.87349325	    -71.45526775	    -34.27106816	    -33.58630017	    -27.39125176	     -7.98543193	     17.55782026	     99.65636888	     -0.13639137	     -0.11209223	     -0.23772157
      3.50000000	    100.89562558	     -0.33109412	      1.03278894	    -11.32995245	     79.47940595	     -0.86903584	    -71.38073989	    -34.25453548	    -33.59259368	    -27.41011042	     -7.97627156	     17.62636764	     99.72364777	     -0.13639860	     -0.11215094	     -0.23779470
      3.51000000	    100.91038030	     -0.33110366	      1.03282939	    -11.34341120	     79.48697728	     -0.88068521	    -71.30766144	    -34.25115650	    -33.59912399	    -27.39462107	     -7.96350269	     17.68729705	     99.79872109	     -0.13635513	     -0.11222987	     -0.23773994
      3.52000000	    100.90375745	     -0.33111514	      1.03282747	    -11.33552566	     79.50982836	     -0.87800618	    -71.22627914	    -34.24546340	    -33.59702055	    -27.41637284	     -7.94680592	     17.75669476	     99.89130396	     -0.13641885	     -0.11234473	     -0.23775707
      3.53000000	    100.91841808	     -0.33114035	      1.03281870	    -11.34642913	     79.51527503	     -0.88374822	    -71.14360268	    -34.23968009	    -33.59878666	    -27.40854626	     -7.92895874	     17.79079101	     99.96836928	     -0.13628232	     -0.11253377	     -0.23771939
      3.54000000	    100.92059151	     -0.33115622	      1.03280512	    -11.34901008	     79.51365933	     -0.88082024	    -71.03394731	    -34.22706493	    -33.59662175	    -27.40973661	     -7.91928781	     17.81311426	    100.01224313	     -0.13627691	     -0.11262092	     -0.23774147
      3.55000000	    100.87691039	     -0.33114161	      1.03288459	    -11.31912221	     79.56533284	     -0.85343550	    -70.93284032	    -34.14317492	    -33.57465652	    -27.37879889	     -7.91978664	     17.82388658	    100.01644353	     -0.13617365	     -0.11280893	     -0.23780518
      3.56000000	    100.89668591	     -0.33115697	      1.03286377	    -11.33294095	     79.54653806	     -0.86569697	    -70.80709994	    -34.13674839	    -33.56844815	    -27.38221961	     -7.92594258	     17.85841292	    100.01525741	     -0.13620452	     -0.11292374	     -0.23788458
      3.57000000	    100.90737661	     -0.33115686	      1.03285182	    -11.34167558	     79.53223856	     -0.87173774	    -70.66751843	    -34.13072919	    -33.55791479	    -27.39069948	     -7.93314904	     17.88119608	    100.00417628	     -0.13629250	     -0.11301291	     -0.23809182
      3.58000000	    100.93240335	     -0.33117884	      1.03290206	    -11.36777081	     79.49340452	     -0.87478137	    -70.53748471	    -34.05212641	    -33.28276214	    -27.41939410	     -7.94195318	     17.89654365	     99.98385133	     -0.13635939	     -0.11309540	     -0.23810281
